<svg id="my-svg" width="100%" xmlns="http://www.w3.org/2000/svg" xmlns:xlink="http://www.w3.org/1999/xlink" class="statediagram" style="max-width: 602.026px; background-color: white;" viewBox="0 0 602.0261840820312 828" role="graphics-document document" aria-roledescription="stateDiagram"><style>#my-svg{font-family:"trebuchet ms",verdana,arial,sans-serif;font-size:16px;fill:#ccc;}@keyframes edge-animation-frame{from{stroke-dashoffset:0;}}@keyframes dash{to{stroke-dashoffset:0;}}#my-svg .edge-animation-slow{stroke-dasharray:9,5!important;stroke-dashoffset:900;animation:dash 50s linear infinite;stroke-linecap:round;}#my-svg .edge-animation-fast{stroke-dasharray:9,5!important;stroke-dashoffset:900;animation:dash 20s linear infinite;stroke-linecap:round;}#my-svg .error-icon{fill:#a44141;}#my-svg .error-text{fill:#ddd;stroke:#ddd;}#my-svg .edge-thickness-normal{stroke-width:1px;}#my-svg .edge-thickness-thick{stroke-width:3.5px;}#my-svg .edge-pattern-solid{stroke-dasharray:0;}#my-svg .edge-thickness-invisible{stroke-width:0;fill:none;}#my-svg .edge-pattern-dashed{stroke-dasharray:3;}#my-svg .edge-pattern-dotted{stroke-dasharray:2;}#my-svg .marker{fill:lightgrey;stroke:lightgrey;}#my-svg .marker.cross{stroke:lightgrey;}#my-svg svg{font-family:"trebuchet ms",verdana,arial,sans-serif;font-size:16px;}#my-svg p{margin:0;}#my-svg defs [id$="-barbEnd"]{fill:lightgrey;stroke:lightgrey;}#my-svg g.stateGroup text{fill:#ccc;stroke:none;font-size:10px;}#my-svg g.stateGroup text{fill:#ccc;stroke:none;font-size:10px;}#my-svg g.stateGroup .state-title{font-weight:bolder;fill:#e0dfdf;}#my-svg g.stateGroup rect{fill:#1f2020;stroke:#ccc;}#my-svg g.stateGroup line{stroke:lightgrey;stroke-width:1;}#my-svg .transition{stroke:lightgrey;stroke-width:1;fill:none;}#my-svg .stateGroup .composit{fill:#333;border-bottom:1px;}#my-svg .stateGroup .alt-composit{fill:#e0e0e0;border-bottom:1px;}#my-svg .state-note{stroke:hsl(180, 0%, 18.3529411765%);fill:hsl(180, 1.5873015873%, 28.3529411765%);}#my-svg .state-note text{fill:rgb(183.8476190475, 181.5523809523, 181.5523809523);stroke:none;font-size:10px;}#my-svg .stateLabel .box{stroke:none;stroke-width:0;fill:#1f2020;opacity:0.5;}#my-svg .edgeLabel .label rect{fill:#1f2020;opacity:0.5;}#my-svg .edgeLabel{background-color:hsl(0, 0%, 34.4117647059%);text-align:center;}#my-svg .edgeLabel p{background-color:hsl(0, 0%, 34.4117647059%);}#my-svg .edgeLabel rect{opacity:0.5;background-color:hsl(0, 0%, 34.4117647059%);fill:hsl(0, 0%, 34.4117647059%);}#my-svg .edgeLabel .label text{fill:#ccc;}#my-svg .label div .edgeLabel{color:#ccc;}#my-svg .stateLabel text{fill:#e0dfdf;font-size:10px;font-weight:bold;}#my-svg .node circle.state-start{fill:#f4f4f4;stroke:#f4f4f4;}#my-svg .node .fork-join{fill:#f4f4f4;stroke:#f4f4f4;}#my-svg .node circle.state-end{fill:#cccccc;stroke:#333;stroke-width:1.5;}#my-svg .end-state-inner{fill:#333;stroke-width:1.5;}#my-svg .node rect{fill:#1f2020;stroke:#ccc;stroke-width:1px;}#my-svg .node polygon{fill:#1f2020;stroke:#ccc;stroke-width:1px;}#my-svg [id$="-barbEnd"]{fill:lightgrey;}#my-svg .statediagram-cluster rect{fill:#1f2020;stroke:#ccc;stroke-width:1px;}#my-svg .cluster-label,#my-svg .nodeLabel{color:#e0dfdf;}#my-svg .statediagram-cluster rect.outer{rx:5px;ry:5px;}#my-svg .statediagram-state .divider{stroke:#ccc;}#my-svg .statediagram-state .title-state{rx:5px;ry:5px;}#my-svg .statediagram-cluster.statediagram-cluster .inner{fill:#333;}#my-svg .statediagram-cluster.statediagram-cluster-alt .inner{fill:#555;}#my-svg .statediagram-cluster .inner{rx:0;ry:0;}#my-svg .statediagram-state rect.basic{rx:5px;ry:5px;}#my-svg .statediagram-state rect.divider{stroke-dasharray:10,10;fill:#555;}#my-svg .note-edge{stroke-dasharray:5;}#my-svg .statediagram-note rect{fill:hsl(180, 1.5873015873%, 28.3529411765%);stroke:hsl(180, 0%, 18.3529411765%);stroke-width:1px;rx:0;ry:0;}#my-svg .statediagram-note rect{fill:hsl(180, 1.5873015873%, 28.3529411765%);stroke:hsl(180, 0%, 18.3529411765%);stroke-width:1px;rx:0;ry:0;}#my-svg .statediagram-note text{fill:rgb(183.8476190475, 181.5523809523, 181.5523809523);}#my-svg .statediagram-note .nodeLabel{color:rgb(183.8476190475, 181.5523809523, 181.5523809523);}#my-svg .statediagram .edgeLabel{color:red;}#my-svg [id$="-dependencyStart"],#my-svg [id$="-dependencyEnd"]{fill:lightgrey;stroke:lightgrey;stroke-width:1;}#my-svg .statediagramTitleText{text-anchor:middle;font-size:18px;fill:#ccc;}#my-svg [data-look="neo"].statediagram-cluster rect{fill:#1f2020;stroke:url(#my-svg-gradient);stroke-width:1;}#my-svg [data-look="neo"].statediagram-cluster rect.outer{rx:5px;ry:5px;filter:drop-shadow( 1px 2px 2px rgba(185,185,185,1));}#my-svg .node .neo-node{stroke:#ccc;}#my-svg [data-look="neo"].node rect,#my-svg [data-look="neo"].cluster rect,#my-svg [data-look="neo"].node polygon{stroke:url(#my-svg-gradient);filter:drop-shadow( 1px 2px 2px rgba(185,185,185,1));}#my-svg [data-look="neo"].swimlane.cluster rect{filter:none;}#my-svg [data-look="neo"].node path{stroke:url(#my-svg-gradient);stroke-width:1px;}#my-svg [data-look="neo"].node .outer-path{filter:drop-shadow( 1px 2px 2px rgba(185,185,185,1));}#my-svg [data-look="neo"].node .neo-line path{stroke:#ccc;filter:none;}#my-svg [data-look="neo"].node circle{stroke:url(#my-svg-gradient);filter:drop-shadow( 1px 2px 2px rgba(185,185,185,1));}#my-svg [data-look="neo"].node circle .state-start{fill:#000000;}#my-svg [data-look="neo"].icon-shape .icon{fill:url(#my-svg-gradient);filter:drop-shadow( 1px 2px 2px rgba(185,185,185,1));}#my-svg [data-look="neo"].icon-shape .icon-neo path{stroke:url(#my-svg-gradient);filter:drop-shadow( 1px 2px 2px rgba(185,185,185,1));}#my-svg :root{--mermaid-font-family:"trebuchet ms",verdana,arial,sans-serif;}</style><g><defs><marker id="my-svg_stateDiagram-barbEnd" refX="19" refY="7" markerWidth="20" markerHeight="14" markerUnits="userSpaceOnUse" orient="auto"><path d="M 19,7 L9,13 L14,7 L9,1 Z"/></marker></defs><g class="root"><g class="clusters"/><g class="edgePaths"><path d="M193.66,22L193.66,26.167C193.66,30.333,193.66,38.667,193.66,47C193.66,55.333,193.66,63.667,193.66,67.833L193.66,72" id="my-svg-edge0" class="edge-thickness-normal edge-pattern-solid transition" style="fill:none;;;fill:none" data-edge="true" data-et="edge" data-id="edge0" data-points="W3sieCI6MTkzLjY1OTU3MzMxNjU3NDEsInkiOjIyfSx7IngiOjE5My42NTk1NzMzMTY1NzQxLCJ5Ijo0N30seyJ4IjoxOTMuNjU5NTczMzE2NTc0MSwieSI6NzJ9XQ==" data-look="classic" marker-end="url(#my-svg_stateDiagram-barbEnd)"/><path d="M193.66,112L193.66,120.167C193.66,128.333,193.66,144.667,193.66,161C193.66,177.333,193.66,193.667,193.66,201.833L193.66,210" id="my-svg-edge1" class="edge-thickness-normal edge-pattern-solid transition" style="fill:none;;;fill:none" data-edge="true" data-et="edge" data-id="edge1" data-points="W3sieCI6MTkzLjY1OTU3MzMxNjU3NDEsInkiOjExMn0seyJ4IjoxOTMuNjU5NTczMzE2NTc0MSwieSI6MTYxfSx7IngiOjE5My42NTk1NzMzMTY1NzQxLCJ5IjoyMTB9XQ==" data-look="classic" marker-end="url(#my-svg_stateDiagram-barbEnd)"/><path d="M249.142,250L266.249,256.167C283.356,262.333,317.57,274.667,334.677,287C351.785,299.333,351.785,311.667,351.785,317.833L351.785,324" id="my-svg-edge2" class="edge-thickness-normal edge-pattern-solid transition" style="fill:none;;;fill:none" data-edge="true" data-et="edge" data-id="edge2" data-points="W3sieCI6MjQ5LjE0MjAyOTQ1NjkyNDk3LCJ5IjoyNTB9LHsieCI6MzUxLjc4NDU3MzMxNjU3NDEsInkiOjI4N30seyJ4IjozNTEuNzg0NTczMzE2NTc0MSwieSI6MzI0fV0=" data-look="classic" marker-end="url(#my-svg_stateDiagram-barbEnd)"/><path d="M152.396,250L139.673,256.167C126.95,262.333,101.504,274.667,88.78,290.333C76.057,306,76.057,325,76.057,344C76.057,363,76.057,382,76.057,401C76.057,420,76.057,439,76.057,458C76.057,477,76.057,496,92.211,512.277C108.365,528.555,140.672,542.109,156.826,548.886L172.98,555.664" id="my-svg-edge3" class="edge-thickness-normal edge-pattern-solid transition" style="fill:none;;;fill:none" data-edge="true" data-et="edge" data-id="edge3" data-points="W3sieCI6MTUyLjM5NTY2MjYzODE3OTAzLCJ5IjoyNTB9LHsieCI6NzYuMDU3NDI3ODgzMTQ4MiwieSI6Mjg3fSx7IngiOjc2LjA1NzQyNzg4MzE0ODIsInkiOjM0NH0seyJ4Ijo3Ni4wNTc0Mjc4ODMxNDgyLCJ5Ijo0MDF9LHsieCI6NzYuMDU3NDI3ODgzMTQ4MiwieSI6NDU4fSx7IngiOjc2LjA1NzQyNzg4MzE0ODIsInkiOjUxNX0seyJ4IjoxNzIuOTc5ODg1ODE2NTc0MSwieSI6NTU1LjY2Mzc4NDg3MjU5OTh9XQ==" data-look="classic" marker-end="url(#my-svg_stateDiagram-barbEnd)"/><path d="M306.562,364L292.619,370.167C278.675,376.333,250.788,388.667,236.845,401C222.901,413.333,222.901,425.667,222.901,431.833L222.901,438" id="my-svg-edge4" class="edge-thickness-normal edge-pattern-solid transition" style="fill:none;;;fill:none" data-edge="true" data-et="edge" data-id="edge4" data-points="W3sieCI6MzA2LjU2MjMyOTMwNDg0NTcsInkiOjM2NH0seyJ4IjoyMjIuOTAxMTc3ODgzMTQ4MiwieSI6NDAxfSx7IngiOjIyMi45MDExNzc4ODMxNDgyLCJ5Ijo0Mzh9XQ==" data-look="classic" marker-end="url(#my-svg_stateDiagram-barbEnd)"/><path d="M385.359,364L395.711,370.167C406.063,376.333,426.767,388.667,437.119,401C447.471,413.333,447.471,425.667,447.471,431.833L447.471,438" id="my-svg-edge5" class="edge-thickness-normal edge-pattern-solid transition" style="fill:none;;;fill:none" data-edge="true" data-et="edge" data-id="edge5" data-points="W3sieCI6Mzg1LjM1ODkzMDE4MjAzODcsInkiOjM2NH0seyJ4Ijo0NDcuNDcxNDkwMzgzMTQ4MiwieSI6NDAxfSx7IngiOjQ0Ny40NzE0OTAzODMxNDgyLCJ5Ijo0Mzh9XQ==" data-look="classic" marker-end="url(#my-svg_stateDiagram-barbEnd)"/><path d="M222.901,478L222.901,484.167C222.901,490.333,222.901,502.667,221.713,515C220.525,527.333,218.148,539.667,216.96,545.833L215.771,552" id="my-svg-edge6" class="edge-thickness-normal edge-pattern-solid transition" style="fill:none;;;fill:none" data-edge="true" data-et="edge" data-id="edge6" data-points="W3sieCI6MjIyLjkwMTE3Nzg4MzE0ODIsInkiOjQ3OH0seyJ4IjoyMjIuOTAxMTc3ODgzMTQ4MiwieSI6NTE1fSx7IngiOjIxNS43NzEzNDc5NDUxOTY2LCJ5Ijo1NTJ9XQ==" data-look="classic" marker-end="url(#my-svg_stateDiagram-barbEnd)"/><path d="M447.471,478L447.471,484.167C447.471,490.333,447.471,502.667,414.702,516.763C381.933,530.859,316.394,546.719,283.624,554.648L250.855,562.578" id="my-svg-edge7" class="edge-thickness-normal edge-pattern-solid transition" style="fill:none;;;fill:none" data-edge="true" data-et="edge" data-id="edge7" data-points="W3sieCI6NDQ3LjQ3MTQ5MDM4MzE0ODIsInkiOjQ3OH0seyJ4Ijo0NDcuNDcxNDkwMzgzMTQ4MiwieSI6NTE1fSx7IngiOjI1MC44NTQ4ODU4MTY1NzQxLCJ5Ijo1NjIuNTc3ODAxNjMwMzk5fV0=" data-look="classic" marker-end="url(#my-svg_stateDiagram-barbEnd)"/><path d="M172.98,591.539L160.538,597.783C148.096,604.026,123.212,616.513,110.77,628.923C98.328,641.333,98.328,653.667,98.328,659.833L98.328,666" id="my-svg-edge8" class="edge-thickness-normal edge-pattern-solid transition" style="fill:none;;;fill:none" data-edge="true" data-et="edge" data-id="edge8" data-points="W3sieCI6MTcyLjk3OTg4NTgxNjU3NDEsInkiOjU5MS41MzkxNDkwNzEzNTQ1fSx7IngiOjk4LjMyODEyNSwieSI6NjI5fSx7IngiOjk4LjMyODEyNSwieSI6NjY2fV0=" data-look="classic" marker-end="url(#my-svg_stateDiagram-barbEnd)"/><path d="M98.328,706L98.328,712.167C98.328,718.333,98.328,730.667,111.805,743C125.283,755.333,152.237,767.667,165.714,773.833L179.191,780" id="my-svg-edge9" class="edge-thickness-normal edge-pattern-solid transition" style="fill:none;;;fill:none" data-edge="true" data-et="edge" data-id="edge9" data-points="W3sieCI6OTguMzI4MTI1LCJ5Ijo3MDZ9LHsieCI6OTguMzI4MTI1LCJ5Ijo3NDN9LHsieCI6MTc5LjE5MTMzNDc2NjI1NDEsInkiOjc4MH1d" data-look="classic" marker-end="url(#my-svg_stateDiagram-barbEnd)"/><path d="M148.414,693.984L199.659,702.154C250.905,710.323,353.395,726.661,409.759,740.997C466.123,755.333,476.361,767.667,481.48,773.833L486.599,780" id="my-svg-edge10" class="edge-thickness-normal edge-pattern-solid transition" style="fill:none;;;fill:none" data-edge="true" data-et="edge" data-id="edge10" data-points="W3sieCI6MTQ4LjQxNDA2MjUsInkiOjY5My45ODQ0NDcyOTM5Njg2fSx7IngiOjQ1NS44ODU1NTI4ODMxNDgyLCJ5Ijo3NDN9LHsieCI6NDg2LjU5OTMzMjkzMDc0ODksInkiOjc4MH1d" data-look="classic" marker-end="url(#my-svg_stateDiagram-barbEnd)"/><path d="M279.154,780L296.499,773.833C313.843,767.667,348.532,755.333,365.877,739.667C383.221,724,383.221,705,383.221,686C383.221,667,383.221,648,361.16,631.159C339.099,614.319,294.977,599.637,272.916,592.297L250.855,584.956" id="my-svg-edge11" class="edge-thickness-normal edge-pattern-solid transition" style="fill:none;;;fill:none" data-edge="true" data-et="edge" data-id="edge11" data-points="W3sieCI6Mjc5LjE1MzkxOTExMTIxODQsInkiOjc4MH0seyJ4IjozODMuMjIxNDkwMzgzMTQ4MiwieSI6NzQzfSx7IngiOjM4My4yMjE0OTAzODMxNDgyLCJ5Ijo2ODZ9LHsieCI6MzgzLjIyMTQ5MDM4MzE0ODIsInkiOjYyOX0seyJ4IjoyNTAuODU0ODg1ODE2NTc0MSwieSI6NTg0Ljk1NjEyNTYzMTc1Nn1d" data-look="classic" marker-end="url(#my-svg_stateDiagram-barbEnd)"/><path d="M515.7,780L519.554,773.833C523.408,767.667,531.115,755.333,534.969,739.667C538.823,724,538.823,705,538.823,686C538.823,667,538.823,648,538.823,629C538.823,610,538.823,591,538.823,572C538.823,553,538.823,534,538.823,515C538.823,496,538.823,477,538.823,458C538.823,439,538.823,420,516.155,403.592C493.487,387.184,448.152,373.368,425.484,366.46L402.816,359.552" id="my-svg-edge12" class="edge-thickness-normal edge-pattern-solid transition" style="fill:none;;;fill:none" data-edge="true" data-et="edge" data-id="edge12" data-points="W3sieCI6NTE1LjcwMDIxMDEyMzczMTQsInkiOjc4MH0seyJ4Ijo1MzguODIzMDUyODgzMTQ4MiwieSI6NzQzfSx7IngiOjUzOC44MjMwNTI4ODMxNDgyLCJ5Ijo2ODZ9LHsieCI6NTM4LjgyMzA1Mjg4MzE0ODIsInkiOjYyOX0seyJ4Ijo1MzguODIzMDUyODgzMTQ4MiwieSI6NTcyfSx7IngiOjUzOC44MjMwNTI4ODMxNDgyLCJ5Ijo1MTV9LHsieCI6NTM4LjgyMzA1Mjg4MzE0ODIsInkiOjQ1OH0seyJ4Ijo1MzguODIzMDUyODgzMTQ4MiwieSI6NDAxfSx7IngiOjQwMi44MTU4MjMzMTY1NzQxLCJ5IjozNTkuNTUxNzc5ODA4ODQyMjR9XQ==" data-look="classic" marker-end="url(#my-svg_stateDiagram-barbEnd)"/><path d="M210.773,592L210.42,598.167C210.068,604.333,209.362,616.667,209.009,631.166C208.656,645.664,208.656,662.329,208.656,670.661L208.656,678.993" id="my-svg-edge13" class="edge-thickness-normal edge-pattern-solid transition" style="fill:none;;;fill:none" data-edge="true" data-et="edge" data-id="edge13" data-points="W3sieCI6MjEwLjc3MzEyNzYzNTMyMDA0LCJ5Ijo1OTJ9LHsieCI6MjA4LjY1NjI1LCJ5Ijo2Mjl9LHsieCI6MjA4LjY1NjI1LCJ5Ijo2NzguOTkzMzUzMzY2ODUxOH1d" data-look="classic" marker-end="url(#my-svg_stateDiagram-barbEnd)"/></g><g class="edgeLabels"><g class="edgeLabel"><g class="label" data-id="edge0" transform="translate(0, 0)"><foreignObject width="0" height="0"><div xmlns="http://www.w3.org/1999/xhtml" class="labelBkg" style="display: table-cell; white-space: nowrap; line-height: 1.5; max-width: 200px; text-align: center;"><span class="edgeLabel"></span></div></foreignObject></g></g><g class="edgeLabel" transform="translate(193.6595733165741, 161)"><g class="label" data-id="edge1" transform="translate(-100, -24)"><foreignObject width="200" height="48"><div xmlns="http://www.w3.org/1999/xhtml" class="labelBkg" style="display: table; white-space: break-spaces; line-height: 1.5; max-width: 200px; text-align: center; width: 200px;"><span class="edgeLabel"><p>initialize BFF auth handshake</p></span></div></foreignObject></g></g><g class="edgeLabel" transform="translate(351.7845733165741, 287)"><g class="label" data-id="edge2" transform="translate(-82.203125, -12)"><foreignObject width="164.40625" height="24"><div xmlns="http://www.w3.org/1999/xhtml" class="labelBkg" style="display: table-cell; white-space: nowrap; line-height: 1.5; max-width: 200px; text-align: center;"><span class="edgeLabel"><p>user not authenticated</p></span></div></foreignObject></g></g><g class="edgeLabel" transform="translate(76.0574278831482, 401)"><g class="label" data-id="edge3" transform="translate(-67.953125, -12)"><foreignObject width="135.90625" height="24"><div xmlns="http://www.w3.org/1999/xhtml" class="labelBkg" style="display: table-cell; white-space: nowrap; line-height: 1.5; max-width: 200px; text-align: center;"><span class="edgeLabel"><p>user authenticated</p></span></div></foreignObject></g></g><g class="edgeLabel" transform="translate(222.9011778831482, 401)"><g class="label" data-id="edge4" transform="translate(-58.890625, -12)"><foreignObject width="117.78125" height="24"><div xmlns="http://www.w3.org/1999/xhtml" class="labelBkg" style="display: table-cell; white-space: nowrap; line-height: 1.5; max-width: 200px; text-align: center;"><span class="edgeLabel"><p>Microsoft sign-in</p></span></div></foreignObject></g></g><g class="edgeLabel" transform="translate(447.4714903831482, 401)"><g class="label" data-id="edge5" transform="translate(-71.3515625, -12)"><foreignObject width="142.703125" height="24"><div xmlns="http://www.w3.org/1999/xhtml" class="labelBkg" style="display: table-cell; white-space: nowrap; line-height: 1.5; max-width: 200px; text-align: center;"><span class="edgeLabel"><p>Dev/Test guest flow</p></span></div></foreignObject></g></g><g class="edgeLabel" transform="translate(222.9011778831482, 515)"><g class="label" data-id="edge6" transform="translate(-66.140625, -12)"><foreignObject width="132.28125" height="24"><div xmlns="http://www.w3.org/1999/xhtml" class="labelBkg" style="display: table-cell; white-space: nowrap; line-height: 1.5; max-width: 200px; text-align: center;"><span class="edgeLabel"><p>cookie established</p></span></div></foreignObject></g></g><g class="edgeLabel" transform="translate(447.4714903831482, 515)"><g class="label" data-id="edge7" transform="translate(-66.140625, -12)"><foreignObject width="132.28125" height="24"><div xmlns="http://www.w3.org/1999/xhtml" class="labelBkg" style="display: table-cell; white-space: nowrap; line-height: 1.5; max-width: 200px; text-align: center;"><span class="edgeLabel"><p>cookie established</p></span></div></foreignObject></g></g><g class="edgeLabel" transform="translate(98.328125, 629)"><g class="label" data-id="edge8" transform="translate(-90.328125, -12)"><foreignObject width="180.65625" height="24"><div xmlns="http://www.w3.org/1999/xhtml" class="labelBkg" style="display: table-cell; white-space: nowrap; line-height: 1.5; max-width: 200px; text-align: center;"><span class="edgeLabel"><p>AuthorizeRouteView gate</p></span></div></foreignObject></g></g><g class="edgeLabel" transform="translate(98.328125, 743)"><g class="label" data-id="edge9" transform="translate(-38.421875, -12)"><foreignObject width="76.84375" height="24"><div xmlns="http://www.w3.org/1999/xhtml" class="labelBkg" style="display: table-cell; white-space: nowrap; line-height: 1.5; max-width: 200px; text-align: center;"><span class="edgeLabel"><p>authorized</p></span></div></foreignObject></g></g><g class="edgeLabel" transform="translate(325.89338, 722.2773)"><g class="label" data-id="edge10" transform="translate(-52.6640625, -12)"><foreignObject width="105.328125" height="24"><div xmlns="http://www.w3.org/1999/xhtml" class="labelBkg" style="display: table-cell; white-space: nowrap; line-height: 1.5; max-width: 200px; text-align: center;"><span class="edgeLabel"><p>not authorized</p></span></div></foreignObject></g></g><g class="edgeLabel" transform="translate(383.2214903831482, 686)"><g class="label" data-id="edge11" transform="translate(-74.84375, -12)"><foreignObject width="149.6875" height="24"><div xmlns="http://www.w3.org/1999/xhtml" class="labelBkg" style="display: table-cell; white-space: nowrap; line-height: 1.5; max-width: 200px; text-align: center;"><span class="edgeLabel"><p>navigation or refresh</p></span></div></foreignObject></g></g><g class="edgeLabel" transform="translate(538.8230528831482, 572)"><g class="label" data-id="edge12" transform="translate(-55.203125, -12)"><foreignObject width="110.40625" height="24"><div xmlns="http://www.w3.org/1999/xhtml" class="labelBkg" style="display: table-cell; white-space: nowrap; line-height: 1.5; max-width: 200px; text-align: center;"><span class="edgeLabel"><p>requires sign-in</p></span></div></foreignObject></g></g><g class="edgeLabel"><g class="label" data-id="edge13" transform="translate(0, 0)"><foreignObject width="0" height="0"><div xmlns="http://www.w3.org/1999/xhtml" class="labelBkg" style="display: table-cell; white-space: nowrap; line-height: 1.5; max-width: 200px; text-align: center;"><span class="edgeLabel"></span></div></foreignObject></g></g></g><g class="nodes"><g class="node default" id="my-svg-state-root_start-0" data-look="classic" transform="translate(193.6595733165741, 15)"><circle class="state-start" r="7" width="14" height="14"/></g><g class="node  statediagram-state" id="my-svg-state-Boot-1" data-look="classic" transform="translate(193.6595733165741, 92)"><rect class="basic label-container" style="" rx="5" ry="5" x="-24.2890625" y="-20" width="48.578125" height="40"/><g class="label" style="" transform="translate(-16.2890625, -12)"><rect/><foreignObject width="32.578125" height="24"><div xmlns="http://www.w3.org/1999/xhtml" style="display: table-cell; white-space: nowrap; line-height: 1.5; max-width: 200px; text-align: center;"><span class="nodeLabel markdown-node-label"><p>Boot</p></span></div></foreignObject></g></g><g class="node  statediagram-state" id="my-svg-state-AuthHandshake-3" data-look="classic" transform="translate(193.6595733165741, 230)"><rect class="basic label-container" style="" rx="5" ry="5" x="-63.109375" y="-20" width="126.21875" height="40"/><g class="label" style="" transform="translate(-55.109375, -12)"><rect/><foreignObject width="110.21875" height="24"><div xmlns="http://www.w3.org/1999/xhtml" style="display: table-cell; white-space: nowrap; line-height: 1.5; max-width: 200px; text-align: center;"><span class="nodeLabel markdown-node-label"><p>AuthHandshake</p></span></div></foreignObject></g></g><g class="node  statediagram-state" id="my-svg-state-LoginScreen-12" data-look="classic" transform="translate(351.7845733165741, 344)"><rect class="basic label-container" style="" rx="5" ry="5" x="-51.03125" y="-20" width="102.0625" height="40"/><g class="label" style="" transform="translate(-43.03125, -12)"><rect/><foreignObject width="86.0625" height="24"><div xmlns="http://www.w3.org/1999/xhtml" style="display: table-cell; white-space: nowrap; line-height: 1.5; max-width: 200px; text-align: center;"><span class="nodeLabel markdown-node-label"><p>LoginScreen</p></span></div></foreignObject></g></g><g class="node  statediagram-state" id="my-svg-state-AppShell-13" data-look="classic" transform="translate(211.9173858165741, 572)"><rect class="basic label-container" style="" rx="5" ry="5" x="-38.9375" y="-20" width="77.875" height="40"/><g class="label" style="" transform="translate(-30.9375, -12)"><rect/><foreignObject width="61.875" height="24"><div xmlns="http://www.w3.org/1999/xhtml" style="display: table-cell; white-space: nowrap; line-height: 1.5; max-width: 200px; text-align: center;"><span class="nodeLabel markdown-node-label"><p>AppShell</p></span></div></foreignObject></g></g><g class="node  statediagram-state" id="my-svg-state-OAuthChallenge-6" data-look="classic" transform="translate(222.9011778831482, 458)"><rect class="basic label-container" style="" rx="5" ry="5" x="-65.21875" y="-20" width="130.4375" height="40"/><g class="label" style="" transform="translate(-57.21875, -12)"><rect/><foreignObject width="114.4375" height="24"><div xmlns="http://www.w3.org/1999/xhtml" style="display: table-cell; white-space: nowrap; line-height: 1.5; max-width: 200px; text-align: center;"><span class="nodeLabel markdown-node-label"><p>OAuthChallenge</p></span></div></foreignObject></g></g><g class="node  statediagram-state" id="my-svg-state-GuestSession-7" data-look="classic" transform="translate(447.4714903831482, 458)"><rect class="basic label-container" style="" rx="5" ry="5" x="-54.1875" y="-20" width="108.375" height="40"/><g class="label" style="" transform="translate(-46.1875, -12)"><rect/><foreignObject width="92.375" height="24"><div xmlns="http://www.w3.org/1999/xhtml" style="display: table-cell; white-space: nowrap; line-height: 1.5; max-width: 200px; text-align: center;"><span class="nodeLabel markdown-node-label"><p>GuestSession</p></span></div></foreignObject></g></g><g class="node  statediagram-state" id="my-svg-state-RouteGuard-10" data-look="classic" transform="translate(98.328125, 686)"><rect class="basic label-container" style="" rx="5" ry="5" x="-50.0859375" y="-20" width="100.171875" height="40"/><g class="label" style="" transform="translate(-42.0859375, -12)"><rect/><foreignObject width="84.171875" height="24"><div xmlns="http://www.w3.org/1999/xhtml" style="display: table-cell; white-space: nowrap; line-height: 1.5; max-width: 200px; text-align: center;"><span class="nodeLabel markdown-node-label"><p>RouteGuard</p></span></div></foreignObject></g></g><g class="node  statediagram-state" id="my-svg-state-ProtectedPage-11" data-look="classic" transform="translate(222.9011778831482, 800)"><rect class="basic label-container" style="" rx="5" ry="5" x="-59.6484375" y="-20" width="119.296875" height="40"/><g class="label" style="" transform="translate(-51.6484375, -12)"><rect/><foreignObject width="103.296875" height="24"><div xmlns="http://www.w3.org/1999/xhtml" style="display: table-cell; white-space: nowrap; line-height: 1.5; max-width: 200px; text-align: center;"><span class="nodeLabel markdown-node-label"><p>ProtectedPage</p></span></div></foreignObject></g></g><g class="node  statediagram-state" id="my-svg-state-AccessDenied-12" data-look="classic" transform="translate(503.2013761997223, 800)"><rect class="basic label-container" style="" rx="5" ry="5" x="-56.2265625" y="-20" width="112.453125" height="40"/><g class="label" style="" transform="translate(-48.2265625, -12)"><rect/><foreignObject width="96.453125" height="24"><div xmlns="http://www.w3.org/1999/xhtml" style="display: table-cell; white-space: nowrap; line-height: 1.5; max-width: 200px; text-align: center;"><span class="nodeLabel markdown-node-label"><p>AccessDenied</p></span></div></foreignObject></g></g><g class="node default" id="my-svg-state-root_end-13" data-look="classic" transform="translate(208.65625, 686)"><g class="outer-path"><path d="M7 0 C7 0.40517908122283747, 6.964012880168563 0.816513743121899, 6.893654271085456 1.2155372436685123 C6.823295662002349 1.6145607442151257, 6.716427752933756 2.013397210557766, 6.5778483455013586 2.394141003279681 C6.439268938068961 2.7748847960015954, 6.26476736710249 3.149104622578984, 6.062177826491071 3.4999999999999996 C5.859588285879653 3.8508953774210153, 5.622755194947063 4.189128084166967, 5.362311101832846 4.499513267805774 C5.10186700871863 4.809898451444582, 4.809898451444583 5.10186700871863, 4.499513267805775 5.362311101832846 C4.189128084166968 5.622755194947063, 3.8508953774210166 5.859588285879652, 3.500000000000001 6.06217782649107 C3.149104622578985 6.264767367102489, 2.7748847960015963 6.439268938068961, 2.3941410032796817 6.5778483455013586 C2.013397210557767 6.716427752933756, 1.6145607442151264 6.823295662002349, 1.2155372436685128 6.893654271085456 C0.8165137431218992 6.964012880168563, 0.4051790812228379 7, 4.286263797015736e-16 7 C-0.405179081222837 7, -0.8165137431218985 6.964012880168563, -1.2155372436685121 6.893654271085456 C-1.6145607442151257 6.823295662002349, -2.0133972105577667 6.716427752933756, -2.394141003279681 6.5778483455013586 C-2.774884796001595 6.439268938068961, -3.149104622578983 6.26476736710249, -3.4999999999999982 6.062177826491071 C-3.8508953774210135 5.859588285879653, -4.189128084166966 5.6227551949470636, -4.499513267805773 5.362311101832848 C-4.809898451444581 5.101867008718632, -5.101867008718628 4.809898451444586, -5.3623111018328435 4.499513267805779 C-5.622755194947059 4.189128084166971, -5.859588285879649 3.8508953774210206, -6.062177826491068 3.5000000000000053 C-6.264767367102486 3.14910462257899, -6.439268938068958 2.774884796001602, -6.577848345501356 2.394141003279688 C-6.716427752933754 2.0133972105577738, -6.823295662002347 1.614560744215134, -6.893654271085454 1.215537243668521 C-6.9640128801685615 0.816513743121908, -6.999999999999999 0.4051790812228472, -7 1.0183126166254463e-14 C-7.000000000000001 -0.40517908122282686, -6.964012880168565 -0.8165137431218878, -6.893654271085459 -1.215537243668501 C-6.823295662002352 -1.6145607442151142, -6.716427752933759 -2.0133972105577542, -6.577848345501363 -2.394141003279669 C-6.439268938068967 -2.7748847960015834, -6.264767367102496 -3.149104622578972, -6.062177826491078 -3.4999999999999876 C-5.859588285879661 -3.8508953774210033, -5.6227551949470715 -4.1891280841669545, -5.362311101832856 -4.499513267805763 C-5.10186700871864 -4.809898451444571, -4.809898451444594 -5.10186700871862, -4.499513267805787 -5.362311101832836 C-4.189128084166979 -5.622755194947053, -3.850895377421028 -5.859588285879643, -3.5000000000000133 -6.062177826491062 C-3.1491046225789985 -6.264767367102482, -2.774884796001611 -6.439268938068954, -2.3941410032796973 -6.577848345501353 C-2.0133972105577835 -6.716427752933752, -1.6145607442151435 -6.823295662002345, -1.2155372436685306 -6.893654271085453 C-0.8165137431219176 -6.9640128801685615, -0.40517908122285695 -6.999999999999999, -1.9937625952807352e-14 -7 C0.4051790812228171 -7.000000000000001, 0.8165137431218781 -6.964012880168565, 1.2155372436684913 -6.89365427108546 C1.6145607442151044 -6.823295662002354, 2.013397210557745 -6.716427752933763, 2.3941410032796595 -6.5778483455013665 C2.774884796001574 -6.43926893806897, 3.149104622578963 -6.2647673671025, 3.499999999999979 -6.062177826491083 C3.8508953774209953 -5.859588285879665, 4.189128084166947 -5.622755194947077, 4.499513267805756 -5.362311101832862 C4.809898451444564 -5.1018670087186475, 5.101867008718613 -4.809898451444602, 5.362311101832829 -4.499513267805796 C5.622755194947046 -4.189128084166989, 5.859588285879637 -3.8508953774210393, 6.062177826491056 -3.500000000000025 C6.2647673671024755 -3.1491046225790105, 6.439268938068949 -2.774884796001623, 6.577848345501348 -2.3941410032797092 C6.716427752933747 -2.0133972105577955, 6.823295662002342 -1.6145607442151562, 6.893654271085451 -1.2155372436685434 C6.96401288016856 -0.8165137431219307, 6.982275711847575 -0.2025895406114567, 7 -3.2800750208310675e-14 C7.017724288152425 0.2025895406113911, 7.017724288152424 -0.2025895406114242, 7 0" stroke="none" stroke-width="0" fill="#1f2020" style=""/><path d="M7 0 C7 0.40517908122283747, 6.964012880168563 0.816513743121899, 6.893654271085456 1.2155372436685123 C6.823295662002349 1.6145607442151257, 6.716427752933756 2.013397210557766, 6.5778483455013586 2.394141003279681 C6.439268938068961 2.7748847960015954, 6.26476736710249 3.149104622578984, 6.062177826491071 3.4999999999999996 C5.859588285879653 3.8508953774210153, 5.622755194947063 4.189128084166967, 5.362311101832846 4.499513267805774 C5.10186700871863 4.809898451444582, 4.809898451444583 5.10186700871863, 4.499513267805775 5.362311101832846 C4.189128084166968 5.622755194947063, 3.8508953774210166 5.859588285879652, 3.500000000000001 6.06217782649107 C3.149104622578985 6.264767367102489, 2.7748847960015963 6.439268938068961, 2.3941410032796817 6.5778483455013586 C2.013397210557767 6.716427752933756, 1.6145607442151264 6.823295662002349, 1.2155372436685128 6.893654271085456 C0.8165137431218992 6.964012880168563, 0.4051790812228379 7, 4.286263797015736e-16 7 C-0.405179081222837 7, -0.8165137431218985 6.964012880168563, -1.2155372436685121 6.893654271085456 C-1.6145607442151257 6.823295662002349, -2.0133972105577667 6.716427752933756, -2.394141003279681 6.5778483455013586 C-2.774884796001595 6.439268938068961, -3.149104622578983 6.26476736710249, -3.4999999999999982 6.062177826491071 C-3.8508953774210135 5.859588285879653, -4.189128084166966 5.6227551949470636, -4.499513267805773 5.362311101832848 C-4.809898451444581 5.101867008718632, -5.101867008718628 4.809898451444586, -5.3623111018328435 4.499513267805779 C-5.622755194947059 4.189128084166971, -5.859588285879649 3.8508953774210206, -6.062177826491068 3.5000000000000053 C-6.264767367102486 3.14910462257899, -6.439268938068958 2.774884796001602, -6.577848345501356 2.394141003279688 C-6.716427752933754 2.0133972105577738, -6.823295662002347 1.614560744215134, -6.893654271085454 1.215537243668521 C-6.9640128801685615 0.816513743121908, -6.999999999999999 0.4051790812228472, -7 1.0183126166254463e-14 C-7.000000000000001 -0.40517908122282686, -6.964012880168565 -0.8165137431218878, -6.893654271085459 -1.215537243668501 C-6.823295662002352 -1.6145607442151142, -6.716427752933759 -2.0133972105577542, -6.577848345501363 -2.394141003279669 C-6.439268938068967 -2.7748847960015834, -6.264767367102496 -3.149104622578972, -6.062177826491078 -3.4999999999999876 C-5.859588285879661 -3.8508953774210033, -5.6227551949470715 -4.1891280841669545, -5.362311101832856 -4.499513267805763 C-5.10186700871864 -4.809898451444571, -4.809898451444594 -5.10186700871862, -4.499513267805787 -5.362311101832836 C-4.189128084166979 -5.622755194947053, -3.850895377421028 -5.859588285879643, -3.5000000000000133 -6.062177826491062 C-3.1491046225789985 -6.264767367102482, -2.774884796001611 -6.439268938068954, -2.3941410032796973 -6.577848345501353 C-2.0133972105577835 -6.716427752933752, -1.6145607442151435 -6.823295662002345, -1.2155372436685306 -6.893654271085453 C-0.8165137431219176 -6.9640128801685615, -0.40517908122285695 -6.999999999999999, -1.9937625952807352e-14 -7 C0.4051790812228171 -7.000000000000001, 0.8165137431218781 -6.964012880168565, 1.2155372436684913 -6.89365427108546 C1.6145607442151044 -6.823295662002354, 2.013397210557745 -6.716427752933763, 2.3941410032796595 -6.5778483455013665 C2.774884796001574 -6.43926893806897, 3.149104622578963 -6.2647673671025, 3.499999999999979 -6.062177826491083 C3.8508953774209953 -5.859588285879665, 4.189128084166947 -5.622755194947077, 4.499513267805756 -5.362311101832862 C4.809898451444564 -5.1018670087186475, 5.101867008718613 -4.809898451444602, 5.362311101832829 -4.499513267805796 C5.622755194947046 -4.189128084166989, 5.859588285879637 -3.8508953774210393, 6.062177826491056 -3.500000000000025 C6.2647673671024755 -3.1491046225790105, 6.439268938068949 -2.774884796001623, 6.577848345501348 -2.3941410032797092 C6.716427752933747 -2.0133972105577955, 6.823295662002342 -1.6145607442151562, 6.893654271085451 -1.2155372436685434 C6.96401288016856 -0.8165137431219307, 6.982275711847575 -0.2025895406114567, 7 -3.2800750208310675e-14 C7.017724288152425 0.2025895406113911, 7.017724288152424 -0.2025895406114242, 7 0" stroke="lightgrey" stroke-width="2" fill="none" stroke-dasharray="0 0" style=""/><g><path d="M2.5 0 C2.5 0.14470681472244193, 2.487147457203058 0.29161205111496386, 2.46201938253052 0.4341204441673258 C2.436891307857982 0.5766288372196877, 2.3987241974763416 0.7190704323420595, 2.3492315519647713 0.8550503583141718 C2.299738906453201 0.991030284286284, 2.2374169168223177 1.124680222349637, 2.165063509461097 1.2499999999999998 C2.092710102099876 1.3753197776503625, 2.0081268553382365 1.496117172916774, 1.915111107797445 1.6069690242163481 C1.8220953602566536 1.7178208755159223, 1.7178208755159226 1.8220953602566536, 1.6069690242163484 1.915111107797445 C1.4961171729167742 2.0081268553382365, 1.375319777650363 2.0927101020998755, 1.2500000000000002 2.1650635094610964 C1.1246802223496375 2.2374169168223172, 0.9910302842862845 2.2997389064532, 0.8550503583141721 2.349231551964771 C0.7190704323420597 2.3987241974763416, 0.576628837219688 2.436891307857982, 0.43412044416732604 2.46201938253052 C0.291612051114964 2.487147457203058, 0.14470681472244212 2.5, 1.5308084989341916e-16 2.5 C-0.1447068147224418 2.5, -0.2916120511149638 2.487147457203058, -0.43412044416732576 2.46201938253052 C-0.5766288372196877 2.436891307857982, -0.7190704323420595 2.3987241974763416, -0.8550503583141718 2.3492315519647713 C-0.991030284286284 2.299738906453201, -1.124680222349637 2.2374169168223177, -1.2499999999999996 2.165063509461097 C-1.375319777650362 2.092710102099876, -1.4961171729167733 2.008126855338237, -1.6069690242163475 1.9151111077974459 C-1.7178208755159217 1.8220953602566548, -1.822095360256653 1.7178208755159234, -1.9151111077974443 1.6069690242163495 C-2.0081268553382357 1.4961171729167755, -2.0927101020998746 1.3753197776503645, -2.1650635094610955 1.250000000000002 C-2.2374169168223164 1.1246802223496395, -2.2997389064531992 0.9910302842862865, -2.34923155196477 0.8550503583141743 C-2.3987241974763407 0.7190704323420621, -2.436891307857981 0.5766288372196907, -2.4620193825305194 0.434120444167329 C-2.487147457203058 0.29161205111496724, -2.5 0.14470681472244545, -2.5 3.636830773662308e-15 C-2.5 -0.14470681472243818, -2.4871474572030587 -0.2916120511149599, -2.4620193825305208 -0.4341204441673218 C-2.436891307857983 -0.5766288372196837, -2.398724197476343 -0.7190704323420553, -2.3492315519647726 -0.8550503583141675 C-2.2997389064532023 -0.9910302842862798, -2.23741691682232 -1.1246802223496328, -2.165063509461099 -1.2499999999999956 C-2.092710102099878 -1.3753197776503583, -2.00812685533824 -1.4961171729167695, -1.9151111077974488 -1.606969024216344 C-1.8220953602566576 -1.7178208755159183, -1.7178208755159263 -1.82209536025665, -1.6069690242163523 -1.9151111077974416 C-1.4961171729167784 -2.0081268553382334, -1.3753197776503672 -2.0927101020998724, -1.2500000000000047 -2.1650635094610937 C-1.1246802223496422 -2.237416916822315, -0.9910302842862897 -2.299738906453198, -0.8550503583141776 -2.3492315519647686 C-0.7190704323420656 -2.3987241974763394, -0.5766288372196942 -2.4368913078579806, -0.43412044416733236 -2.462019382530519 C-0.29161205111497057 -2.4871474572030574, -0.1447068147224489 -2.4999999999999996, -7.120580697431198e-15 -2.5 C0.14470681472243463 -2.5000000000000004, 0.29161205111495647 -2.487147457203059, 0.4341204441673183 -2.4620193825305217 C0.5766288372196802 -2.436891307857984, 0.7190704323420518 -2.3987241974763442, 0.8550503583141642 -2.349231551964774 C0.9910302842862766 -2.2997389064532037, 1.1246802223496295 -2.2374169168223212, 1.2499999999999925 -2.165063509461101 C1.3753197776503554 -2.0927101020998804, 1.4961171729167668 -2.008126855338242, 1.6069690242163412 -1.915111107797451 C1.7178208755159157 -1.82209536025666, 1.8220953602566472 -1.7178208755159294, 1.915111107797439 -1.6069690242163557 C2.0081268553382308 -1.496117172916782, 2.09271010209987 -1.3753197776503712, 2.1650635094610915 -1.2500000000000089 C2.237416916822313 -1.1246802223496466, 2.299738906453196 -0.9910302842862939, 2.3492315519647673 -0.855050358314182 C2.3987241974763385 -0.71907043234207, 2.4368913078579792 -0.5766288372196986, 2.462019382530518 -0.4341204441673369 C2.487147457203057 -0.29161205111497523, 2.4936698970884197 -0.07235340736123454, 2.5 -1.1714553645825241e-14 C2.5063301029115803 0.07235340736121111, 2.50633010291158 -0.07235340736122292, 2.5 0" stroke="none" stroke-width="0" fill="#ccc" style=""/><path d="M2.5 0 C2.5 0.14470681472244193, 2.487147457203058 0.29161205111496386, 2.46201938253052 0.4341204441673258 C2.436891307857982 0.5766288372196877, 2.3987241974763416 0.7190704323420595, 2.3492315519647713 0.8550503583141718 C2.299738906453201 0.991030284286284, 2.2374169168223177 1.124680222349637, 2.165063509461097 1.2499999999999998 C2.092710102099876 1.3753197776503625, 2.0081268553382365 1.496117172916774, 1.915111107797445 1.6069690242163481 C1.8220953602566536 1.7178208755159223, 1.7178208755159226 1.8220953602566536, 1.6069690242163484 1.915111107797445 C1.4961171729167742 2.0081268553382365, 1.375319777650363 2.0927101020998755, 1.2500000000000002 2.1650635094610964 C1.1246802223496375 2.2374169168223172, 0.9910302842862845 2.2997389064532, 0.8550503583141721 2.349231551964771 C0.7190704323420597 2.3987241974763416, 0.576628837219688 2.436891307857982, 0.43412044416732604 2.46201938253052 C0.291612051114964 2.487147457203058, 0.14470681472244212 2.5, 1.5308084989341916e-16 2.5 C-0.1447068147224418 2.5, -0.2916120511149638 2.487147457203058, -0.43412044416732576 2.46201938253052 C-0.5766288372196877 2.436891307857982, -0.7190704323420595 2.3987241974763416, -0.8550503583141718 2.3492315519647713 C-0.991030284286284 2.299738906453201, -1.124680222349637 2.2374169168223177, -1.2499999999999996 2.165063509461097 C-1.375319777650362 2.092710102099876, -1.4961171729167733 2.008126855338237, -1.6069690242163475 1.9151111077974459 C-1.7178208755159217 1.8220953602566548, -1.822095360256653 1.7178208755159234, -1.9151111077974443 1.6069690242163495 C-2.0081268553382357 1.4961171729167755, -2.0927101020998746 1.3753197776503645, -2.1650635094610955 1.250000000000002 C-2.2374169168223164 1.1246802223496395, -2.2997389064531992 0.9910302842862865, -2.34923155196477 0.8550503583141743 C-2.3987241974763407 0.7190704323420621, -2.436891307857981 0.5766288372196907, -2.4620193825305194 0.434120444167329 C-2.487147457203058 0.29161205111496724, -2.5 0.14470681472244545, -2.5 3.636830773662308e-15 C-2.5 -0.14470681472243818, -2.4871474572030587 -0.2916120511149599, -2.4620193825305208 -0.4341204441673218 C-2.436891307857983 -0.5766288372196837, -2.398724197476343 -0.7190704323420553, -2.3492315519647726 -0.8550503583141675 C-2.2997389064532023 -0.9910302842862798, -2.23741691682232 -1.1246802223496328, -2.165063509461099 -1.2499999999999956 C-2.092710102099878 -1.3753197776503583, -2.00812685533824 -1.4961171729167695, -1.9151111077974488 -1.606969024216344 C-1.8220953602566576 -1.7178208755159183, -1.7178208755159263 -1.82209536025665, -1.6069690242163523 -1.9151111077974416 C-1.4961171729167784 -2.0081268553382334, -1.3753197776503672 -2.0927101020998724, -1.2500000000000047 -2.1650635094610937 C-1.1246802223496422 -2.237416916822315, -0.9910302842862897 -2.299738906453198, -0.8550503583141776 -2.3492315519647686 C-0.7190704323420656 -2.3987241974763394, -0.5766288372196942 -2.4368913078579806, -0.43412044416733236 -2.462019382530519 C-0.29161205111497057 -2.4871474572030574, -0.1447068147224489 -2.4999999999999996, -7.120580697431198e-15 -2.5 C0.14470681472243463 -2.5000000000000004, 0.29161205111495647 -2.487147457203059, 0.4341204441673183 -2.4620193825305217 C0.5766288372196802 -2.436891307857984, 0.7190704323420518 -2.3987241974763442, 0.8550503583141642 -2.349231551964774 C0.9910302842862766 -2.2997389064532037, 1.1246802223496295 -2.2374169168223212, 1.2499999999999925 -2.165063509461101 C1.3753197776503554 -2.0927101020998804, 1.4961171729167668 -2.008126855338242, 1.6069690242163412 -1.915111107797451 C1.7178208755159157 -1.82209536025666, 1.8220953602566472 -1.7178208755159294, 1.915111107797439 -1.6069690242163557 C2.0081268553382308 -1.496117172916782, 2.09271010209987 -1.3753197776503712, 2.1650635094610915 -1.2500000000000089 C2.237416916822313 -1.1246802223496466, 2.299738906453196 -0.9910302842862939, 2.3492315519647673 -0.855050358314182 C2.3987241974763385 -0.71907043234207, 2.4368913078579792 -0.5766288372196986, 2.462019382530518 -0.4341204441673369 C2.487147457203057 -0.29161205111497523, 2.4936698970884197 -0.07235340736123454, 2.5 -1.1714553645825241e-14 C2.5063301029115803 0.07235340736121111, 2.50633010291158 -0.07235340736122292, 2.5 0" stroke="#ccc" stroke-width="2" fill="none" stroke-dasharray="0 0" style=""/></g></g></g></g></g></g><defs><filter id="my-svg-drop-shadow" height="130%" width="130%"><feDropShadow dx="4" dy="4" stdDeviation="0" flood-opacity="0.06" flood-color="#FFFFFF"/></filter></defs><defs><filter id="my-svg-drop-shadow-small" height="150%" width="150%"><feDropShadow dx="2" dy="2" stdDeviation="0" flood-opacity="0.06" flood-color="#FFFFFF"/></filter></defs><linearGradient id="my-svg-gradient" gradientUnits="objectBoundingBox" x1="0%" y1="0%" x2="100%" y2="0%"><stop offset="0%" stop-color="#cccccc" stop-opacity="1"/><stop offset="100%" stop-color="hsl(180, 0%, 18.3529411765%)" stop-opacity="1"/></linearGradient></svg>